<svg
        xmlns="http://www.w3.org/2000/svg"
        viewBox="0 0 24 24"
        stroke-width="1"
        stroke-linecap="square"
        stroke-linejoin="square"
>
    <path d="M 8 22 L 16 22 C 14.06 21.14 13.74 20.61 13.28 16.99 C 16.9 20.71 19.45 19.22 20.87 18.27 C 22.36 17.2 23.07 15.46 22.79 13.47 C 22.43 11.06 19.27 7.72 13.88 11.45 C 17.89 6.48 16.9 4.03 16.04 2.9 C 15.09 1.37 13.38 0.98 12 0.98 C 10.58 0.98 8.91 1.37 7.92 2.82 C 7.17 4.07 6.11 6.48 10.29 11.41 C 4.54 7.65 1.53 10.95 1.14 13.62 C 1.03 16.28 1.74 17.13 3.23 18.55 C 4.83 19.65 7.1 20.64 10.79 16.99 C 10.33 20.64 9.87 21.14 8 22 Z"/>
</svg>
