<svg
    xmlns="http://www.w3.org/2000/svg"
    viewBox="0 0 24 24"
    stroke-width="1"
    stroke-linecap="square"
    stroke-linejoin="square"
>
    <path d="M 8 22 L 16 22 C 14.06 21.14 13.74 20.61 13.28 16.99 C 16.9 20.71 19.49 19.08 20.87 18.27 C 21.97 17.17 22.5 15.99 22.29 14.5 C 21.83 12.27 20.55 10.46 18.71 8.89 Q 15.02 5.84 12 1 Q 8.98 5.84 5.25 8.93 C 3.02 10.95 1.95 12.55 1.42 14.4 C 1.17 16.7 2.27 17.48 3.09 18.41 C 4.15 19.26 7.1 20.64 10.79 16.99 C 10.33 20.64 9.87 21.14 8 22 Z"/>
</svg>
